<svg width="1400" height="829" viewBox="0 0 1400 829" fill="none" xmlns="http://www.w3.org/2000/svg">
<g clip-path="url(#clip0_247_3119)">
<path d="M890.865 510.997L927.451 482.315C950.457 511.662 972.569 540.722 995.862 568.802C1000.12 573.93 1009.87 578.657 1015.92 577.498C1083.66 564.525 1136.23 608.177 1134.16 677.249C1133.81 688.949 1132.93 701.308 1128.86 712.06C1122.89 727.833 1127.56 738.473 1137.47 750.792C1179.79 803.42 1221.09 856.878 1262.76 910.033C1267.14 915.624 1271.52 921.215 1276.72 927.848L1240.14 956.528C1235.8 950.992 1231.5 945.507 1227.2 940.022C1183.91 884.803 1140.39 829.759 1097.54 774.2C1089.97 764.372 1082.36 760.807 1069.71 761C1024.08 761.694 983.667 749.996 960.64 705.752C946.676 678.923 946.476 651.063 960.926 624.688C967.588 612.529 965.269 605.1 957.361 595.419C935.052 568.106 913.645 540.055 890.865 510.997ZM1006.64 693.281C1022.18 712.943 1049.99 716.32 1069.43 700.908C1088.59 685.727 1091.92 656.886 1076.73 637.73C1061.45 618.464 1032.78 615.137 1013.56 630.4C994.007 645.92 990.976 673.465 1006.64 693.28L1006.64 693.281Z" fill="white" fill-opacity="0.1"/>
<path d="M1400.41 830.201C1379.12 803.049 1357.91 776.541 1337.38 749.519C1329.7 739.419 1323.37 734.603 1308.52 738.161C1271.42 747.052 1239.4 734.851 1216.41 704.274C1193.97 674.42 1190.9 641.16 1208.57 608.089C1214.83 596.37 1212.4 589.916 1205.19 580.822C1158.29 521.694 1111.89 462.168 1065.32 402.772L1051.63 385.301L1087.94 356.837L1251.52 565.507C1296.17 551.751 1333.74 559.414 1361.96 596.432C1384.24 625.661 1387.69 658.304 1370.59 690.677C1363.59 703.94 1366.19 711.41 1374.39 721.464C1395.51 747.341 1415.78 773.906 1437.26 801.307L1400.41 830.201ZM1254.42 677.256C1269.91 696.847 1297.88 700.244 1317.2 684.882C1336.5 669.546 1339.76 641.127 1324.44 621.778C1308.91 602.154 1281.62 599.136 1261.71 614.844C1241.77 630.581 1238.64 657.313 1254.42 677.255L1254.42 677.256Z" fill="white" fill-opacity="0.1"/>
<path d="M1212.36 258.983C1217.02 254.882 1220.23 251.836 1223.67 249.076C1231.26 242.986 1238.97 237.041 1248.65 229.449C1270.93 257.866 1292.75 284.673 1313.31 312.418C1322.01 324.147 1329.68 328.402 1345.47 325.062C1381.86 317.361 1413.22 329.712 1435.82 359.371C1458.46 389.08 1461.58 422.256 1444.42 455.518C1438.62 466.758 1439.36 473.337 1446.96 482.866C1493.14 540.846 1538.65 599.365 1584.38 657.703L1598.23 675.364L1561.41 704.229C1557.28 698.965 1553.01 693.512 1548.73 688.059C1502.59 629.205 1456.28 570.486 1410.5 511.354C1403.34 502.104 1397.59 498.591 1384.76 501.638C1346.92 510.625 1314.57 499.419 1290.8 468.023C1267.53 437.301 1265.43 403.865 1283.36 370.189C1288.72 360.104 1287.58 354.31 1280.96 346.136C1257.95 317.718 1235.66 288.713 1212.36 258.984L1212.36 258.983ZM1397.45 385.964C1381.77 366.32 1353.97 363.122 1334.58 378.731C1315.41 394.159 1312.27 422.839 1327.66 441.958C1343.02 461.043 1371.81 464.207 1390.88 448.906C1410.25 433.358 1413.14 405.624 1397.45 385.964Z" fill="white" fill-opacity="0.1"/>
</g>
<defs>
<clipPath id="clip0_247_3119">
<rect width="1400" height="829" rx="10" fill="white"/>
</clipPath>
</defs>
</svg>
